<?xml version="1.0" encoding="UTF-8"?>
<svg version="1.1" viewBox="0 0 12.7 12.7" xmlns="http://www.w3.org/2000/svg"
    xmlns:cc="http://creativecommons.org/ns#"
    xmlns:dc="http://purl.org/dc/elements/1.1/"
    xmlns:rdf="http://www.w3.org/1999/02/22-rdf-syntax-ns#"
    width="50" height="50">
<metadata>
    <rdf:RDF>
    <cc:Work rdf:about="">
        <dc:format>image/svg+xml</dc:format>
        <dc:type rdf:resource="http://purl.org/dc/dcmitype/StillImage"/>
        <dc:title/>
    </cc:Work>
    </rdf:RDF>
</metadata>
<g shape-rendering="auto">
    <path fill="currentColor" class="text-white" d="m0.78485 3.165c-0.20065 0.011668-0.39979 0.081089-0.57096 0.21197-0.14278 0.11652-0.0014248 0.30392 0.15043 0.19693 0.34993-0.26758 0.84699-0.20155 1.1146 0.14838 0.063016 0.08241 0.10343 0.17356 0.12992 0.26736-0.053528 0.032518-0.10559 0.066863-0.1559 0.10393-0.36404-0.35687-0.94433-0.40524-1.3607-0.08684-0.14278 0.11652-0.0014248 0.30392 0.15043 0.19693 0.31302-0.23935 0.74205-0.20972 1.0209 0.049232-0.37972 0.35529-0.62943 0.85024-0.65985 1.4079-0.062592 1.1475 0.82318 2.133 1.9707 2.1956 1.1475 0.062592 2.1337-0.82113 2.1963-1.9686 0.023295-0.42706-0.084834-0.83199-0.28856-1.1754-0.12087-0.33266-0.60055-0.17029-0.4301 0.24343 0.15764 0.26285 0.24094 0.57482 0.22291 0.90533-0.047986 0.87971-0.7935 1.5482-1.6732 1.5002-0.2975-0.016228-0.57005-0.11398-0.80002-0.26804l1.3669-2.835c0.16284-0.24037-0.052323-0.55155-0.36651-0.56891-0.34544-0.018843-0.67598 0.049583-0.97165 0.18394-0.035278-0.10562-0.083225-0.2083-0.15453-0.30155-0.21814-0.28528-0.55655-0.4263-0.89097-0.40685z" color="#000000" color-rendering="auto" dominant-baseline="auto" image-rendering="auto" solid-color="#000000" stop-color="#000000" style="font-feature-settings:normal;font-variant-alternates:normal;font-variant-caps:normal;font-variant-east-asian:normal;font-variant-ligatures:normal;font-variant-numeric:normal;font-variant-position:normal;font-variation-settings:normal;inline-size:0;isolation:auto;mix-blend-mode:normal;shape-margin:0;shape-padding:0;text-decoration-color:#000000;text-decoration-line:none;text-decoration-style:solid;text-indent:0;text-orientation:mixed;text-transform:none;white-space:normal"/>
    <path fill="currentColor" class="text-white" d="m7.0702 5.2027c-1.5322 0-2.7809 1.2514-2.7809 2.7837 0 1.5322 1.2487 2.7803 2.7809 2.7803 1.5322 0 2.7809-1.248 2.7809-2.7803 0-1.5322-1.2487-2.7837-2.7809-2.7837zm0 0.6619c0.5232 0 1.0002 0.18835 1.3689 0.50053l-2.7085 3.2651c-0.47621-0.38785-0.77951-0.97846-0.77951-1.6438 0-1.1747 0.94435-2.1218 2.119-2.1218zm1.8052 1.0106c0.10126 0.16502 0.18048 0.34429 0.23385 0.5354l-2.2688 2.6818c-0.18449-0.019701-0.36091-0.064278-0.52788-0.12787zm0.27556 1.5112c-0.13924 0.73421-0.65446 1.3299-1.3395 1.5843z" color="#000000" color-rendering="auto" dominant-baseline="auto" image-rendering="auto" solid-color="#000000" stop-color="#000000" style="font-feature-settings:normal;font-variant-alternates:normal;font-variant-caps:normal;font-variant-east-asian:normal;font-variant-ligatures:normal;font-variant-numeric:normal;font-variant-position:normal;font-variation-settings:normal;inline-size:0;isolation:auto;mix-blend-mode:normal;shape-margin:0;shape-padding:0;text-decoration-color:#000000;text-decoration-line:none;text-decoration-style:solid;text-indent:0;text-orientation:mixed;text-transform:none;white-space:normal"/>
    <path fill="currentColor" class="text-white" d="m10.923 8.6484c0.22125 0.047965 0.43588 0.14415 0.62831 0.29129l8e-6 -9.1e-6c0.69986 0.53515 0.83195 1.5284 0.2968 2.2283-0.21399 0.30371 0.1613 0.58711 0.39435 0.30154 0.69804-0.91288 0.52296-2.2257-0.38992-2.9237l1e-6 -9e-7c-0.22757-0.17402-0.47997-0.29333-0.74155-0.36053m-1.4204 0.70226c0.00151 0.00118 0.00264 0.00267 0.00416 0.00383" color="#000000" color-rendering="auto" dominant-baseline="auto" image-rendering="auto" solid-color="#000000" stop-color="#000000" style="font-feature-settings:normal;font-variant-alternates:normal;font-variant-caps:normal;font-variant-east-asian:normal;font-variant-ligatures:normal;font-variant-numeric:normal;font-variant-position:normal;font-variation-settings:normal;inline-size:0;isolation:auto;mix-blend-mode:normal;shape-margin:0;shape-padding:0;text-decoration-color:#000000;text-decoration-line:none;text-decoration-style:solid;text-indent:0;text-orientation:mixed;text-transform:none;white-space:normal"/>
    <path fill="currentColor" class="text-white" d="m4.6832 6.6332c0.091881 0.048987 0.18744 0.093291 0.28649 0.13249 1.4247 0.56381 3.045-0.13717 3.6089-1.5619 0.56381-1.4247-0.46835-3.0036-1.2742-3.4348-0.37739-0.22157-0.68832-0.040835-0.84894 0.34293-0.50545 1.3001-1.5398 3.8911-1.5398 3.8911zm2.3877-4.2778c0.88609 0.52125 1.2829 1.6176 0.89222 2.6048-0.39067 0.98723-1.4294 1.513-2.432 1.2864z" color="#000000" color-rendering="auto" dominant-baseline="auto" image-rendering="auto" solid-color="#000000" stop-color="#000000" style="font-feature-settings:normal;font-variant-alternates:normal;font-variant-caps:normal;font-variant-east-asian:normal;font-variant-ligatures:normal;font-variant-numeric:normal;font-variant-position:normal;font-variation-settings:normal;inline-size:0;isolation:auto;mix-blend-mode:normal;shape-margin:0;shape-padding:0;text-decoration-color:#000000;text-decoration-line:none;text-decoration-style:solid;text-indent:0;text-orientation:mixed;text-transform:none;white-space:normal"/>
</g>
<circle transform="rotate(-1.4122)" cx="10.145" cy="8.4175" r=".237" fill="none" stroke="#000" stroke-dashoffset="17.613" stroke-linejoin="round" stroke-width=".44788"/>
</svg>
